<svg width="78" height="78" viewBox="0 0 78 78" fill="none" xmlns="http://www.w3.org/2000/svg">
<g filter="url(#filter0_dd)">
<path d="M27.7229 35.6696C27.7229 34.2157 26.7128 33.3472 24.9318 33.3472C24.2049 33.3472 23.7133 33.418 23.455 33.4868V38.1565C23.7611 38.2253 24.136 38.2502 24.6506 38.2502C26.5502 38.2502 27.7229 37.288 27.7229 35.6696Z" fill="#ED4C5C"/>
<path d="M38.7532 33.3931C37.9555 33.3931 37.439 33.4639 37.1329 33.5346V43.8801C37.439 43.9509 37.9307 43.9509 38.3764 43.9509C41.6132 43.9739 43.7251 42.1909 43.7251 38.4147C43.75 35.1301 41.8255 33.3931 38.7532 33.3931Z" fill="#ED4C5C"/>
<path d="M59.8861 27.3155H58.5891V21.0581C58.588 21.0184 58.5842 20.9787 58.5776 20.9395C58.5797 20.6878 58.4907 20.4439 58.327 20.2527L47.9146 8.36156L47.9069 8.3539C47.7747 8.21041 47.6062 8.10532 47.4191 8.04974L47.3617 8.03061C47.2822 8.01079 47.2007 8.00052 47.1188 8H21.5286C20.3598 8 19.411 8.95076 19.411 10.1177V27.3155H18.1139C16.442 27.3155 15.0876 28.6699 15.0876 30.3419V46.082C15.0876 47.752 16.4439 49.1084 18.1139 49.1084H19.411V59.8843C19.411 61.0512 20.3598 62.002 21.5286 62.002H56.4714C57.6383 62.002 58.5891 61.0512 58.5891 59.8843V49.1084H59.8861C61.5581 49.1084 62.9125 47.752 62.9125 46.082V30.3419C62.9125 28.6699 61.5562 27.3155 59.8861 27.3155ZM21.5286 10.1177H46.059V20.9529C46.059 21.5383 46.5334 22.0108 47.1188 22.0108H56.4733V27.3155H21.5286V10.1177ZM47.5262 38.2961C47.5262 41.3225 46.4244 43.4115 44.8959 44.7008C43.2316 46.0839 40.6988 46.742 37.6016 46.742C35.7479 46.742 34.4356 46.6234 33.5422 46.5086V30.977C34.8565 30.7666 36.5686 30.6499 38.3764 30.6499C41.3779 30.6499 43.3253 31.1893 44.85 32.339C46.4932 33.5576 47.5262 35.505 47.5262 38.2961ZM19.9102 46.5794V30.977C21.0121 30.7895 22.5617 30.6499 24.7425 30.6499C26.9482 30.6499 28.5206 31.0726 29.5747 31.9163C30.5828 32.714 31.262 34.0282 31.262 35.5758C31.262 37.1254 30.7474 38.4377 29.8081 39.3291C28.5876 40.4788 26.7817 40.9953 24.6698 40.9953C24.2011 40.9953 23.7783 40.9724 23.4512 40.9246V46.5794H19.9102ZM56.4714 59.3104H21.5286V49.1084H56.4714V59.3104ZM59.5399 33.6992H53.4623V37.3128H59.14V40.2225H53.4623V46.5794H49.8754V30.7666H59.5399V33.6992Z" fill="#ED4C5C"/>
</g>
<defs>
<filter id="filter0_dd" x="0" y="0" width="78" height="78" filterUnits="userSpaceOnUse" color-interpolation-filters="sRGB">
<feFlood flood-opacity="0" result="BackgroundImageFix"/>
<feColorMatrix in="SourceAlpha" type="matrix" values="0 0 0 0 0 0 0 0 0 0 0 0 0 0 0 0 0 0 127 0"/>
<feOffset dy="4"/>
<feGaussianBlur stdDeviation="2"/>
<feColorMatrix type="matrix" values="0 0 0 0 0 0 0 0 0 0 0 0 0 0 0 0 0 0 0.25 0"/>
<feBlend mode="normal" in2="BackgroundImageFix" result="effect1_dropShadow"/>
<feColorMatrix in="SourceAlpha" type="matrix" values="0 0 0 0 0 0 0 0 0 0 0 0 0 0 0 0 0 0 127 0"/>
<feOffset dy="4"/>
<feGaussianBlur stdDeviation="2"/>
<feColorMatrix type="matrix" values="0 0 0 0 0 0 0 0 0 0 0 0 0 0 0 0 0 0 0.25 0"/>
<feBlend mode="normal" in2="effect1_dropShadow" result="effect2_dropShadow"/>
<feBlend mode="normal" in="SourceGraphic" in2="effect2_dropShadow" result="shape"/>
</filter>
</defs>
</svg>
